<svg xmlns="http://www.w3.org/2000/svg" width="40.47" height="40.465" viewBox="0 0 40.47 40.465">
  <g id="Group_120" data-name="Group 120" transform="translate(-278.676 -236.877)">
    <path id="Path_12" data-name="Path 12" d="M283.6,240.589c0-.374-.012-.717,0-1.059a2.725,2.725,0,0,1,5.448.025c.011.309,0,.619,0,.975h2.924c0-.275,0-.533,0-.79a2.748,2.748,0,1,1,5.493-.055c.008.276,0,.552,0,.859h2.876a3.324,3.324,0,0,1,1.016-3.014,2.669,2.669,0,0,1,1.764-.645,2.738,2.738,0,0,1,2.185,1.147,3.591,3.591,0,0,1,.527,2.491h2.927c0-.3,0-.585,0-.873a2.776,2.776,0,0,1,2.693-2.772,2.82,2.82,0,0,1,2.772,2.709c.014.324,0,.649,0,.983.383.109.714.193,1.04.3a5.515,5.515,0,0,1,3.859,5.167q.024,12.918,0,25.835a5.526,5.526,0,0,1-5.464,5.457q-14.763.03-29.526,0a5.53,5.53,0,0,1-5.451-5.47q-.03-12.893,0-25.786a5.544,5.544,0,0,1,4.343-5.347C283.188,240.684,283.346,240.649,283.6,240.589Zm-3.441,9.315v.633q0,10.531,0,21.063a4.107,4.107,0,0,0,4.183,4.255q14.542,0,29.085,0a4.078,4.078,0,0,0,4.234-4.249q0-10.581,0-21.161c0-.173-.016-.346-.025-.542Zm.022-1.532h37.479c0-.818.006-1.587,0-2.356a4.053,4.053,0,0,0-2.949-3.811,3.643,3.643,0,0,0-.479-.055c0,.349.012.64,0,.931a2.732,2.732,0,0,1-5.463-.052c-.008-.306,0-.611,0-.955h-2.846a7.21,7.21,0,0,1-.253,1.76,3.175,3.175,0,0,1-1.044,1.368,3.51,3.51,0,0,1-1.645.509,2.316,2.316,0,0,1-1.688-.687,3.337,3.337,0,0,1-.939-2.954h-2.882c0,.315.009.607,0,.9a2.747,2.747,0,1,1-5.492-.069c0-.26,0-.52,0-.816h-2.922c0,.339.005.631,0,.923a2.726,2.726,0,0,1-5.449.151c-.024-.321-.039-.642-.061-1.015a4.09,4.09,0,0,0-.521.1,3.884,3.884,0,0,0-2.821,3.385A22.447,22.447,0,0,0,280.183,248.373ZM296,241.312c0-.541.007-1.081,0-1.622a1.291,1.291,0,0,0-1.231-1.332,1.243,1.243,0,0,0-1.325,1.229c-.038,1.145-.038,2.293,0,3.438a1.237,1.237,0,0,0,1.321,1.232A1.277,1.277,0,0,0,296,242.934C296.013,242.393,296,241.853,296,241.312Zm5.814.009c0,.541-.01,1.082,0,1.622a1.267,1.267,0,0,0,1.244,1.315,1.247,1.247,0,0,0,1.316-1.241c.036-1.129.035-2.262,0-3.391a1.258,1.258,0,0,0-1.341-1.269,1.288,1.288,0,0,0-1.222,1.341C301.81,240.239,301.818,240.78,301.818,241.321Zm-15.476-2.965a1.245,1.245,0,0,0-1.27,1.179c-.023,1.18-.02,2.362,0,3.543a1.255,1.255,0,0,0,2.481.184,12.344,12.344,0,0,0,0-3.889A1.212,1.212,0,0,0,286.341,238.356Zm26.431,2.959c0-.541.008-1.082,0-1.622a1.281,1.281,0,0,0-1.227-1.335,1.2,1.2,0,0,0-1.309,1.18c-.049,1.177-.052,2.36,0,3.537a1.206,1.206,0,0,0,1.355,1.182,1.253,1.253,0,0,0,1.182-1.32C312.781,242.4,312.772,241.856,312.772,241.315Z" transform="translate(0)"/>
    <path id="Path_13" data-name="Path 13" d="M455.575,411.5c0,.492.009.985,0,1.477A1.972,1.972,0,0,1,453.652,415c-1.048.05-2.1.045-3.149,0a1.976,1.976,0,0,1-1.928-2.022c-.012-1.017-.014-2.034,0-3.051a1.942,1.942,0,0,1,1.969-1.964c1.017-.014,2.034-.015,3.051,0a1.932,1.932,0,0,1,1.975,1.956C455.586,410.448,455.574,410.973,455.575,411.5Zm-5.541-.053q0,.736,0,1.473a.548.548,0,0,0,.6.614c.965.008,1.931.011,2.9,0a.534.534,0,0,0,.578-.59c0-.965,0-1.931,0-2.9a.549.549,0,0,0-.607-.612c-.949-.012-1.9-.009-2.847,0a.561.561,0,0,0-.627.642C450.04,410.529,450.035,410.987,450.034,411.445Z" transform="translate(-153.163 -154.236)"/>
    <path id="Path_14" data-name="Path 14" d="M565.851,407.993c.524,0,1.049-.015,1.573,0a1.986,1.986,0,0,1,1.959,2.036c0,.95,0,1.9,0,2.851a2.042,2.042,0,0,1-2.106,2.159c-.966.019-1.934.022-2.9,0a1.965,1.965,0,0,1-2.005-2.034c-.013-1.016-.015-2.032,0-3.047a1.919,1.919,0,0,1,2-1.969c.492-.007.983,0,1.475,0Zm-2,1.607c0,1.234-.014,2.378.009,3.522.007.346.3.434.606.434.918,0,1.837.007,2.755-.005.5-.007.678-.191.681-.69q.009-1.353,0-2.706c0-.515-.184-.694-.722-.7-.885-.008-1.771-.01-2.656,0A3.864,3.864,0,0,0,563.856,409.6Z" transform="translate(-255.757 -154.264)"/>
    <path id="Path_15" data-name="Path 15" d="M341.724,411.452c0,.508.015,1.017,0,1.524a1.961,1.961,0,0,1-2,2c-.982.028-1.967.025-2.949,0a2.036,2.036,0,0,1-2.071-2.143c0-.967-.006-1.934,0-2.9a1.976,1.976,0,0,1,1.944-2q1.6-.038,3.2,0a1.9,1.9,0,0,1,1.868,1.9c.017.54,0,1.081,0,1.622Zm-1.536-1.888a1.862,1.862,0,0,0-.509-.166q-1.447-.024-2.9,0a.548.548,0,0,0-.6.614q.008,1.423,0,2.847a.559.559,0,0,0,.631.636c.933,0,1.865,0,2.8,0,.459,0,.648-.226.646-.667,0-.916,0-1.832,0-2.748A4.583,4.583,0,0,0,340.188,409.564Z" transform="translate(-50.51 -154.198)"/>
    <path id="Path_16" data-name="Path 16" d="M341.763,517.378c0,.508.019,1.017,0,1.523a1.928,1.928,0,0,1-1.951,1.934q-1.6.033-3.193-.028a1.942,1.942,0,0,1-1.86-1.929c-.022-1.015-.023-2.032-.008-3.047a2.024,2.024,0,0,1,2-2.014c.983-.021,1.966-.022,2.949-.011a2.016,2.016,0,0,1,2.062,2.047C341.771,516.362,341.762,516.87,341.763,517.378Zm-3.527,1.97c.459,0,.919-.01,1.378,0s.667-.184.663-.643q-.012-1.378,0-2.755c0-.429-.192-.644-.618-.645q-1.4,0-2.8,0a.542.542,0,0,0-.618.6q0,1.427,0,2.854a.532.532,0,0,0,.619.589C337.318,519.343,337.777,519.348,338.236,519.349Z" transform="translate(-50.543 -249.659)"/>
    <path id="Path_17" data-name="Path 17" d="M448.506,517.211c0-.492-.009-.984,0-1.475a1.992,1.992,0,0,1,1.948-2.008q1.548-.042,3.1,0a1.988,1.988,0,0,1,1.946,1.916c.039,1.048.043,2.1,0,3.147a1.955,1.955,0,0,1-2.076,1.97q-1.4.013-2.8,0a1.973,1.973,0,0,1-2.123-2.025c-.028-.507,0-1.016,0-1.524Zm3.524-2.013c-.459,0-.919-.006-1.378,0-.5.008-.686.184-.691.678q-.012,1.353,0,2.707c0,.531.148.694.661.7.918.015,1.837,0,2.756.005.474,0,.681-.232.676-.7-.011-.919-.006-1.837-.01-2.756a.564.564,0,0,0-.636-.637Z" transform="translate(-153.09 -249.576)"/>
    <path id="Path_18" data-name="Path 18" d="M565.716,520.749c-.524,0-1.05.021-1.573,0a1.9,1.9,0,0,1-1.915-1.91q-.046-1.6,0-3.2a1.976,1.976,0,0,1,1.941-1.91c1.032-.028,2.067-.031,3.1,0a2.04,2.04,0,0,1,1.97,2.055q.017,1.475,0,2.951a2,2,0,0,1-2,2.006c-.508.013-1.016,0-1.525,0Zm.038-5.55c-.476,0-.951,0-1.427,0-.394,0-.63.171-.632.58-.005.984,0,1.967,0,2.951a.5.5,0,0,0,.552.549c.984.009,1.967.014,2.951,0a.521.521,0,0,0,.567-.593c-.006-.951,0-1.9,0-2.853a.562.562,0,0,0-.635-.636Q566.443,515.2,565.755,515.2Z" transform="translate(-255.616 -249.575)"/>
  </g>
</svg>
