<svg xmlns="http://www.w3.org/2000/svg" width="13.835" height="14.973" viewBox="0 0 13.835 14.973">
  <g id="Group_39" data-name="Group 39" transform="translate(0 0)">
    <g id="Group_37" data-name="Group 37" transform="translate(5.279 0)">
      <path id="Path_7" data-name="Path 7" d="M1504.433,368.369c.1-.088.172-.143.235-.206q2.743-2.721,5.485-5.443a1.041,1.041,0,1,0-1.415-1.528c-.448.43-.884.874-1.325,1.312l-5.075,5.037a1.053,1.053,0,0,0-.008,1.626q3.152,3.175,6.3,6.35a1.042,1.042,0,1,0,1.516-1.428c-.51-.527-1.031-1.043-1.548-1.563q-2-2.018-4.008-4.036A1.706,1.706,0,0,0,1504.433,368.369Z" transform="translate(-1501.949 -360.895)" fill="#525253"/>
    </g>
    <g id="Group_38" data-name="Group 38" transform="translate(0 0)">
      <path id="Path_7-2" data-name="Path 7" d="M1504.433,368.369c.1-.088.172-.143.235-.206q2.743-2.721,5.485-5.443a1.041,1.041,0,1,0-1.415-1.528c-.448.43-.884.874-1.325,1.312l-5.075,5.037a1.053,1.053,0,0,0-.008,1.626q3.152,3.175,6.3,6.35a1.042,1.042,0,1,0,1.516-1.428c-.51-.527-1.031-1.043-1.548-1.563q-2-2.018-4.008-4.036A1.706,1.706,0,0,0,1504.433,368.369Z" transform="translate(-1501.949 -360.895)" fill="#525253"/>
    </g>
  </g>
</svg>
